<?xml version="1.0" ?><svg viewBox="0 0 129.88 129.88" xmlns="http://www.w3.org/2000/svg" xmlns:xlink="http://www.w3.org/1999/xlink"><defs><style>.cls-1{fill:url(#linear-gradient);}.cls-2{fill:url(#linear-gradient-2);}.cls-3{fill:#fff;}.cls-4{fill:none;stroke:#fff;stroke-linecap:round;stroke-linejoin:round;stroke-width:4.6px;}</style><linearGradient gradientUnits="userSpaceOnUse" id="linear-gradient" x1="21.01" x2="108.81" y1="89.65" y2="38.96"><stop offset="0.02" stop-color="red"/><stop offset="1" stop-color="#9e005d"/></linearGradient><linearGradient id="linear-gradient-2" x1="33.89" x2="95.94" xlink:href="#linear-gradient" y1="64.3" y2="64.3"/></defs><title/><g data-name="Layer 1" id="Layer_1"><path class="cls-1" d="M86.3,13.61H43.52a13.64,13.64,0,0,0-11.81,6.82L10.32,57.48a13.62,13.62,0,0,0,0,13.64l21.39,37.05A13.64,13.64,0,0,0,43.52,115H86.3a13.65,13.65,0,0,0,11.82-6.82l21.39-37a13.62,13.62,0,0,0,0-13.64l-21.39-37A13.65,13.65,0,0,0,86.3,13.61Z"/><path class="cls-2" d="M42.53,40.26H87.3a8.65,8.65,0,0,1,8.65,8.65V79.7a8.64,8.64,0,0,1-8.64,8.64H42.53a8.65,8.65,0,0,1-8.65-8.65V48.9A8.64,8.64,0,0,1,42.53,40.26Z"/><path class="cls-3" d="M87.3,42.21A6.7,6.7,0,0,1,94,48.91V79.7a6.7,6.7,0,0,1-6.69,6.7H42.53a6.69,6.69,0,0,1-6.69-6.7V48.91a6.69,6.69,0,0,1,6.69-6.7H87.3m0-3.9H42.53a10.61,10.61,0,0,0-10.6,10.6V79.7a10.62,10.62,0,0,0,10.6,10.6H87.3A10.61,10.61,0,0,0,97.89,79.7V48.91A10.6,10.6,0,0,0,87.3,38.31Z"/><path class="cls-4" d="M92.05,43.57,69.9,65.8a7.3,7.3,0,0,1-10.32,0L37.28,43.5"/><line class="cls-4" x1="71.95" x2="92.76" y1="65.23" y2="85.97"/><line class="cls-4" x1="37.78" x2="58.15" y1="85.55" y2="65.3"/><line class="cls-4" x1="76.79" x2="67.67" y1="47.74" y2="47.74"/></g></svg>